<svg width="46" height="42" viewBox="0 0 46 46" xmlns="http://www.w3.org/2000/svg">
  <path d="M3 0C1.355 0 0 1.355 0 3v36c0 1.645 1.355 3 3 3h40c1.645 0 3-1.355 3-3V7c0-1.645-1.355-3-3-3H14.33s-.361 0-.605-.281c-.245-.282-.546-.75-.86-1.25-.314-.501-.643-1.036-1.058-1.506C11.392.493 10.819 0 10 0Zm0 2h6.726c.219.002.335.007.583.287.247.28.548.745.86 1.244.314.5.637 1.032 1.044 1.5C12.619 5.5 13.179 6 14 6h29c.565 0 1 .435 1 1v4.188A2.936 2.936 0 0 0 43 11H3c-.352 0-.685.074-1 .188V3c0-.565.435-1 1-1Zm0 11h40c.565 0 1 .435 1 1v25c0 .565-.435 1-1 1H3c-.565 0-1-.435-1-1V14c0-.43.435-1 1-1z"/>
</svg>