<svg width="323.155" height="328.312" viewBox="0 0 85.501 86.866" xmlns="http://www.w3.org/2000/svg">
  <path color="#000" fill="#000" stroke-width="3.77953" stroke-miterlimit="7" d="M212.068 217.9c-3.786-.164-7.809.549-11.87 2.375-64.479 35.077-97.275 109.535-79.63 180.784 17.646 71.248 81.396 121.791 154.791 122.722 73.396.931 138.415-47.981 157.862-118.76 17.385-63.275-5.474-130.126-55.934-169.812-4.843-4.188-11.148-8.534-19.088-12.926-.337-.186-.66-.373-1.004-.56-25.995-11.69-50.377 22.222-21.674 39.84a116.034 116.034 0 0 1 53.961 131.449 116.03 116.03 0 0 1-113.546 85.424 116.033 116.033 0 0 1-111.342-88.282c-12.74-51.437 12.112-102.319 57.275-130.039 24.218-14.865 10.647-41.33-9.8-42.215z" transform="matrix(.26458 0 0 .26458 -30.648 -51.721)"/>
  <path color="#000" fill="#000" stroke-width="3.77953" d="M277.44 195.482a22.677 22.677 0 0 0-22.669 22.454h-.008v.224l-.029 152.61h.014a22.677 22.677 0 0 0 0 .011 22.677 22.677 0 0 0 22.678 22.676 22.677 22.677 0 0 0 22.675-22.676 22.677 22.677 0 0 0-.013-.775l.029-151.844v-.219h-.002a22.677 22.677 0 0 0-22.676-22.46z" transform="matrix(.26458 0 0 .26458 -30.648 -51.721)"/>
</svg>